PathFileType	4	(X/Y/Z)	./resultDataOpenSim/trcMotMarkerGrf/sub10/qtm-01-06.trc
DataRate	CameraRate	NumFrames	NumMarkers	Units	OrigDataRate	OrigDataStartFrame	OrigNumFrames
250.000000	250.000000	6	24	m	250.000000	349	464
Frame#	Time	L.Toe.Tip			R.Toe.Tip			L.Ankle.Lat			R.Ankle.Lat			L.Ankle.Med			R.Ankle.Med			L.Heel			R.Heel			L.Knee.Lat			R.Knee.Lat			L.Knee.Med			R.Knee.Med			L.Thigh.Upper			R.Thigh.Upper			L.ASIS			R.ASIS			V.Sacral			L.Acromium			R.Acromium			C7			L.Elbow			R.Elbow			L.Wrist.Lat			R.Wrist.Lat
		X1	Y1	Z1	X2	Y2	Z2	X3	Y3	Z3	X4	Y4	Z4	X5	Y5	Z5	X6	Y6	Z6	X7	Y7	Z7	X8	Y8	Z8	X9	Y9	Z9	X10	Y10	Z10	X11	Y11	Z11	X12	Y12	Z12	X13	Y13	Z13	X14	Y14	Z14	X15	Y15	Z15	X16	Y16	Z16	X17	Y17	Z17	X18	Y18	Z18	X19	Y19	Z19	X20	Y20	Z20	X21	Y21	Z21	X22	Y22	Z22	X23	Y23	Z23	X24	Y24	Z24

349	1.392	0.67998043	0.063810675	-0.085792505	0.81966584	0.038362323	0.070252134	0.59330964	0.16920509	-0.099644387	0.67739806	0.053840109	0.10916109	0.62604727	0.17414702	-0.020761393	0.69769823	0.082337705	0.026169955	0.52859397	0.18046184	-0.048167124	0.6252564	0.031375481	0.063922923	0.83398028	0.46096282	-0.12583453	0.75511462	0.45074805	0.15090938	0.86406778	0.431007	-0.008037916	0.75241806	0.45766598	0.022457547	0.73988189	0.82778508	-0.16729654	0.75540722	0.86893426	0.20988232	0.79324865	0.94963304	-0.1147337	0.81565513	0.96453604	0.12990094	0.60496962	0.9565161	0.026958094	0.7139612	1.4212069	-0.15060663	0.6925091	1.4187832	0.17450557	0.61877989	1.4427036	0.0017308652	0.66611159	1.079269	-0.20635872	0.62977207	1.0753986	0.233598	0.82925869	0.89659359	-0.21406221	0.76180105	0.88063502	0.29972451
350	1.396	0.69848618	0.062754037	-0.086017971	0.81970258	0.038335952	0.070266309	0.60855195	0.16521632	-0.098832079	0.67725415	0.053978506	0.10914869	0.64130593	0.17073046	-0.019980609	0.69801255	0.082403342	0.026083541	0.54368506	0.17447199	-0.047181055	0.62564236	0.03160013	0.0636971	0.84370816	0.46273725	-0.12488021	0.75610224	0.45062617	0.15097575	0.87362967	0.43298565	-0.0073636312	0.75398085	0.45753956	0.022488047	0.74726937	0.82889738	-0.1674842	0.75944276	0.86864334	0.20998555	0.79937594	0.95061759	-0.11373553	0.82012509	0.9645832	0.13084297	0.61001075	0.95691908	0.026163884	0.71929283	1.4215357	-0.15054813	0.69797777	1.4192484	0.1745585	0.62423744	1.443037	0.0018564345	0.67001383	1.080165	-0.20575369	0.63760824	1.0753087	0.23451237	0.83048386	0.89539243	-0.21456903	0.77293576	0.88226126	0.299467
351	1.4	0.71703286	0.061715183	-0.086299855	0.81973232	0.038293739	0.070276601	0.62391494	0.16117324	-0.097996916	0.67715689	0.054104589	0.10912079	0.65654499	0.16729653	-0.019142597	0.69811229	0.082442487	0.02603327	0.55907156	0.16838568	-0.046016633	0.62605316	0.031883945	0.063501164	0.85426553	0.46459604	-0.12406956	0.75733137	0.45051784	0.15114096	0.88304818	0.43486091	-0.0067169396	0.75566176	0.4574373	0.02267448	0.7545575	0.82995152	-0.1676943	0.76344557	0.86835412	0.21006896	0.80556901	0.95146073	-0.11272026	0.82463347	0.96453762	0.13177355	0.61515741	0.95717604	0.025280528	0.72462383	1.4218022	-0.15048479	0.70344251	1.4196589	0.17461815	0.62969954	1.4433192	0.0019883535	0.67364018	1.080916	-0.20553645	0.6454423	1.0752082	0.23545866	0.83171213	0.89418365	-0.2150702	0.78407167	0.88391097	0.29916764
352	1.404	0.73560917	0.060699123	-0.086630343	0.8197574	0.038240701	0.070283913	0.63941339	0.15708989	-0.097150387	0.67713258	0.054208851	0.10907273	0.67181245	0.16385821	-0.01826922	0.69795172	0.082449159	0.026033274	0.57480445	0.16218399	-0.044584414	0.62634014	0.032169504	0.063462456	0.86440508	0.4663965	-0.12350309	0.75872198	0.4504019	0.15135897	0.89234237	0.43663887	-0.0060904266	0.75763802	0.45731492	0.02310552	0.76168374	0.83092829	-0.16793227	0.76740796	0.86806506	0.21013139	0.81184398	0.95219203	-0.11171357	0.82920629	0.96438266	0.13268888	0.62034172	0.95729241	0.024384722	0.72994375	1.4219993	-0.15042728	0.70890488	1.4200165	0.17468647	0.63516668	1.4435441	0.0021274052	0.67702522	1.0814391	-0.2056855	0.65321825	1.0751092	0.23645154	0.83294102	0.89298468	-0.21559113	0.79519982	0.88558496	0.29883127
353	1.408	0.75418674	0.059704224	-0.087008933	0.81979027	0.038189801	0.070285334	0.65508052	0.15298084	-0.096302808	0.67714641	0.054298046	0.10901511	0.68718361	0.16041496	-0.017370668	0.69770978	0.082454178	0.026061643	0.59083487	0.15588241	-0.042983809	0.62652323	0.032409767	0.063650305	0.87349954	0.46786207	-0.12314104	0.76018704	0.45025732	0.15157919	0.90154323	0.43833189	-0.0054717182	0.75993968	0.45714365	0.023751044	0.76864687	0.83182257	-0.16817732	0.77132413	0.867774	0.21017605	0.81814577	0.95284628	-0.11074765	0.83380991	0.96413921	0.13359032	0.62554437	0.9573214	0.023472474	0.73525235	1.4221192	-0.15038209	0.71436706	1.4203166	0.17476402	0.6406284	1.4436998	0.0022702299	0.6802924	1.081799	-0.20609474	0.66095904	1.0749764	0.23746838	0.83416651	0.89177966	-0.21614604	0.80629531	0.88727778	0.29846209
354	1.412	0.7727679	0.058742852	-0.087421285	0.81984274	0.038142472	0.070273844	0.67092649	0.14886674	-0.095449292	0.67716353	0.054380823	0.10895668	0.70269938	0.15697037	-0.016427925	0.69756005	0.082489598	0.02608448	0.60703665	0.1495796	-0.041484062	0.62670447	0.032566769	0.063950545	0.88180787	0.46880453	-0.1228461	0.76168874	0.45008063	0.15178297	0.91068045	0.43993805	-0.0048699245	0.76235678	0.45693305	0.024456275	0.77563862	0.83264819	-0.1683634	0.77520161	0.86747949	0.21020705	0.8244057	0.95343018	-0.10982357	0.83841249	0.9638312	0.13448151	0.6307541	0.95732167	0.02252219	0.74055734	1.4221627	-0.15034906	0.71983046	1.4205475	0.17484587	0.64608342	1.4437815	0.0024108242	0.68361878	1.0821224	-0.20649494	0.6687338	1.0747696	0.23845975	0.8353878	0.8905391	-0.21672459	0.81735247	0.8889827	0.29805812
